<svg xmlns="http://www.w3.org/2000/svg" width="260" height="32" fill="none">
    <g clip-path="url(#clip0_8_23)">
        <path fill="#0C91AC"
            d="m6.64492 10.6869-4.45263 5.1389 4.53585 5.2829c2.4968 2.8817 4.74386 5.331 4.91036 5.3791.2081.096.8323-.3843 1.3732-1.0566l.9988-1.2487-3.4955-4.0343-3.53718-4.0823 3.53718-4.0823 3.4955-4.0342-.9988-1.2487C12.4708 6.0283 11.8466 5.5 11.5969 5.5c-.2497 0-2.4968 2.3053-4.95198 5.1869Z" />
        <path fill="#fff"
            d="M29.3929 31.7557c-1.5444 0-2.8687-.2159-3.973-.6477-1.0968-.4243-1.9697-1.0038-2.6188-1.7387-.6491-.7348-1.0706-1.5606-1.2646-2.4772l4.4094-.6023c.1343.3485.3469.6742.6379.9773.291.303.6752.5454 1.1527.7272.485.1894 1.0744.2841 1.7683.2841 1.037 0 1.8913-.2576 2.5629-.7727.6789-.5076 1.0184-1.3599 1.0184-2.5568v-3.1932h-.2015c-.2089.4848-.5223.9432-.94 1.375-.4179.4318-.955.7841-1.6116 1.0568-.6566.2727-1.44.4091-2.3503.4091-1.2907 0-2.4659-.303-3.5253-.9091-1.052-.6136-1.8914-1.5492-2.518-2.8068-.6193-1.2652-.9289-2.8636-.9289-4.7955 0-1.9772.3171-3.6288.9512-4.9545.6342-1.32581 1.4773-2.31821 2.5293-2.97731 1.0594-.6591 2.2197-.9886 3.4806-.9886.9624 0 1.7682.1666 2.4173.5.6491.3257 1.1714.7348 1.5668 1.2273.4029.4848.7125.9621.9289 1.43181h.179V7.39209h4.734V25.0171c0 1.4848-.3581 2.7272-1.0744 3.7272-.7161 1-1.7085 1.75-2.9769 2.25-1.2609.5076-2.712.7614-4.3534.7614Zm.1007-10.7955c.7684 0 1.4176-.1931 1.9473-.5795.5372-.3939.9475-.9546 1.2311-1.6818.291-.7349.4365-1.6137.4365-2.6364 0-1.0227-.1419-1.9091-.4253-2.6591-.2835-.7576-.6939-1.3447-1.2311-1.7613-.5372-.4167-1.1901-.625-1.9585-.625-.7834 0-1.4437.2159-1.9809.6477-.5372.4242-.9438 1.0151-1.2199 1.7727-.276.7576-.414 1.6326-.414 2.625 0 1.0076.138 1.8788.414 2.6136.2835.7273.6902 1.2917 1.2199 1.6932.5372.394 1.1975.5909 1.9809.5909Zm23.1216-3.5454V7.39209h4.7675V24.8466h-4.5773v-3.1705h-.179c-.3881 1.0228-1.0334 1.8447-1.9361 2.466-.8954.6212-1.9884.9318-3.2792.9318-1.149 0-2.16-.2652-3.0328-.7955-.873-.5303-1.5557-1.2841-2.0481-2.2613-.485-.9773-.7312-2.1478-.7387-3.5114V7.39209h4.7676V17.6421c.0075 1.0303.2798 1.8447.817 2.4431.5372.5985 1.2572.8978 2.16.8978.5745 0 1.1116-.1326 1.6115-.3978.4999-.2727.9028-.6742 1.2087-1.2045.3134-.5303.4663-1.1856.4589-1.9659Zm8.581 7.4318V7.39209h4.7676V24.8466h-4.7676Zm2.395-19.70451c-.7088 0-1.3169-.2387-1.8242-.716-.5-.4848-.7499-1.0643-.7499-1.73859 0-.66667.2499-1.23864.7499-1.715906.5073-.48485 1.1154-.72727 1.8242-.72727.7088 0 1.3131.24242 1.813.72727.5073.477266.761 1.049236.761 1.715906 0 .67429-.2537 1.25379-.761 1.73859-.4999.4773-1.1042.716-1.813.716Zm15.4358 2.25v3.63631H68.4175V7.39209H79.027ZM70.8461 24.8466V6.13069c0-1.2652.2424-2.3144.7274-3.1477.4924-.83337 1.1639-1.45837 2.0145-1.87504.8505-.416656 1.8167-.624996 2.8985-.624996.7313 0 1.399.05682 2.0033.17046.6118.11363 1.067.21591 1.3654.30682l-.8505 3.636356c-.1866-.0606-.4179-.1174-.694-.1705-.2685-.053-.5446-.0795-.8281-.0795-.7013 0-1.19.1667-1.4661.5-.276.3258-.4141.7841-.4141 1.375V24.8466h-4.7563Zm18.312.3409c-1.7682 0-3.2903-.3636-4.5661-1.0909-1.2684-.7348-2.2458-1.7727-2.9322-3.1136-.6864-1.3485-1.0297-2.9432-1.0297-4.7841 0-1.7955.3433-3.3712 1.0297-4.7273.6864-1.3561 1.6526-2.41291 2.8986-3.17051 1.2534-.7575 2.7232-1.1363 4.4094-1.1363 1.134 0 2.1898.1856 3.1672.5568.9848.3636 1.8429.9129 2.574 1.6477.7387.73491 1.3131 1.65911 1.7235 2.77281.4102 1.106.6151 2.4015.6151 3.8863v1.3296H82.5327v-3h10.0276c0-.697-.1493-1.3144-.4477-1.8523s-.7125-.9583-1.2422-1.2614c-.5223-.3106-1.1304-.4659-1.8242-.4659-.7238 0-1.3654.1705-1.925.5114-.5521.3333-.9849.7841-1.2981 1.3523-.3134.5606-.4739 1.1856-.4813 1.875v2.8522c0 .8637.1566 1.6099.47 2.2387.3208.6288.7722 1.1136 1.3542 1.4545.5819.3409 1.2721.5114 2.0705.5114.5296 0 1.0146-.0758 1.4548-.2273.4402-.1515.817-.3788 1.1304-.6818.3133-.303.5521-.6743.7162-1.1137l4.4092.2955c-.2235 1.0758-.6825 2.0152-1.3763 2.8182-.6864.7954-1.5743 1.4166-2.6636 1.8636-1.0819.4394-2.3316.6591-3.7491.6591Zm11.0019-.3409V7.39209h4.622v3.04541h.179c.313-1.08331.839-1.90151 1.578-2.45451.738-.5606 1.588-.8409 2.551-.8409.239 0 .497.0151.772.0454.276.0303.518.072.727.125V11.608c-.223-.0682-.533-.1288-.928-.1819-.395-.053-.758-.0795-1.086-.0795-.701 0-1.327.1553-1.88.4659-.544.303-.977.7273-1.298 1.2727-.313.5455-.471 1.1743-.471 1.8864v9.875h-4.766Zm17.662-10.0909v10.0909h-4.768V7.39209h4.544v3.07951h.201c.381-1.01521 1.02-1.81821 1.915-2.40911.895-.5985 1.98-.8977 3.256-.8977 1.194 0 2.234.2651 3.123.7954.887.5303 1.577 1.2879 2.07 2.27281.492.9772.739 2.1439.739 3.5v11.1136h-4.768v-10.25c.008-1.0682-.261-1.9015-.806-2.5-.544-.6061-1.294-.9091-2.249-.9091-.641 0-1.209.1402-1.701.4205-.485.2803-.866.6894-1.141 1.2272-.269.5303-.407 1.1705-.415 1.9205Zm19.739 10.4204c-1.097 0-2.074-.1931-2.932-.5795-.858-.3939-1.537-.9735-2.037-1.7386-.493-.7728-.739-1.7349-.739-2.8864 0-.9697.175-1.7841.526-2.4432.352-.6591.828-1.1894 1.433-1.5909.605-.4015 1.291-.7045 2.059-.9091.776-.2045 1.59-.3485 2.44-.4318.999-.1061 1.806-.2045 2.418-.2955.611-.0984 1.055-.2424 1.331-.4318s.414-.4697.414-.8409v-.0682c0-.7197-.224-1.2765-.671-1.6704-.44-.394-1.068-.5909-1.88-.5909-.859 0-1.541.1932-2.049.5795-.507.3788-.843.8561-1.007 1.4318l-4.409-.3636c.223-1.0606.664-1.9773 1.32-2.75001.657-.7803 1.503-1.3788 2.54-1.7955 1.045-.4242 2.254-.6363 3.627-.6363.955 0 1.869.1136 2.741.3409.881.2273 1.661.5795 2.339 1.0568.687.4773 1.229 1.0909 1.623 1.84091.396.7424.593 1.6326.593 2.6705v11.7727h-4.521v-2.4205h-.134c-.276.5455-.645 1.0266-1.108 1.4432-.463.4091-1.018.7311-1.667.9659-.649.2273-1.4.3409-2.25.3409Zm1.365-3.3409c.702 0 1.321-.1401 1.859-.4204.536-.2879.958-.6743 1.264-1.1591.306-.4849.459-1.0341.459-1.6477v-1.8523c-.15.0985-.354.1894-.615.2727-.254.0758-.542.1477-.862.2159-.321.0606-.642.1175-.963.1705-.32.0454-.612.0871-.873.125-.559.0833-1.048.2159-1.466.3977-.418.1818-.742.428-.973.7386-.232.3031-.348.6819-.348 1.1364 0 .6591.235 1.1629.705 1.5114.478.3409 1.083.5113 1.813.5113Zm16.782-7.0795v10.0909h-4.768V7.39209h4.545v3.07951h.2c.382-1.01521 1.019-1.81821 1.914-2.40911.896-.5985 1.982-.8977 3.257-.8977 1.194 0 2.235.2651 3.123.7954.887.5303 1.578 1.2879 2.07 2.27281.492.9772.739 2.1439.739 3.5v11.1136h-4.768v-10.25c.008-1.0682-.261-1.9015-.806-2.5-.544-.6061-1.295-.9091-2.249-.9091-.642 0-1.208.1402-1.701.4205-.485.2803-.866.6894-1.142 1.2272-.268.5303-.406 1.1705-.414 1.9205Zm21.171 10.375c-1.306 0-2.487-.3409-3.547-1.0227-1.052-.6894-1.888-1.7008-2.507-3.0341-.612-1.3409-.917-2.9849-.917-4.9318 0-2 .317-3.6629.951-4.9887.633-1.33331 1.477-2.32951 2.529-2.98861 1.059-.6667 2.219-1 3.481-1 .962 0 1.763.1666 2.406.5.649.3257 1.171.7348 1.566 1.2273.403.4848.71.9621.918 1.43181h.145V1.57386h4.757V24.8466h-4.701v-2.7955h-.201c-.224.4849-.541.966-.951 1.4432-.403.4697-.929.8599-1.578 1.1705-.642.3106-1.425.4659-2.351.4659Zm1.511-3.8523c.769 0 1.418-.2121 1.947-.6363.538-.4319.949-1.0341 1.231-1.8069.292-.7727.438-1.678.438-2.7159s-.142-1.9394-.426-2.7045c-.284-.7652-.694-1.3561-1.231-1.7727-.538-.4167-1.19-.625-1.959-.625-.783 0-1.444.2159-1.98.6477-.538.4318-.944 1.0303-1.221 1.7954-.275.7652-.413 1.6516-.413 2.6591 0 1.0152.138 1.9129.413 2.6932.284.7727.691 1.3788 1.221 1.8182.536.4318 1.197.6477 1.98.6477Zm20.025 3.9091c-1.769 0-3.29-.3636-4.567-1.0909-1.268-.7348-2.245-1.7727-2.932-3.1136-.686-1.3485-1.029-2.9432-1.029-4.7841 0-1.7955.343-3.3712 1.029-4.7273.687-1.3561 1.653-2.41291 2.899-3.17051 1.254-.7575 2.723-1.1363 4.409-1.1363 1.135 0 2.19.1856 3.167.5568.985.3636 1.844.9129 2.575 1.6477.738.73491 1.312 1.65911 1.723 2.77281.411 1.106.616 2.4015.616 3.8863v1.3296h-14.516v-3h10.028c0-.697-.149-1.3144-.447-1.8523-.299-.5379-.713-.9583-1.243-1.2614-.522-.3106-1.13-.4659-1.824-.4659-.724 0-1.365.1705-1.926.5114-.551.3333-.984.7841-1.298 1.3523-.313.5606-.473 1.1856-.48 1.875v2.8522c0 .8637.156 1.6099.47 2.2387.321.6288.772 1.1136 1.354 1.4545.582.3409 1.272.5114 2.07.5114.53 0 1.014-.0758 1.454-.2273.441-.1515.818-.3788 1.131-.6818.313-.303.553-.6743.716-1.1137l4.41.2955c-.224 1.0758-.682 2.0152-1.377 2.8182-.686.7954-1.574 1.4166-2.664 1.8636-1.081.4394-2.331.6591-3.748.6591Zm25.304-12.8182-4.365.2728c-.075-.3788-.235-.7197-.482-1.0228-.246-.3106-.57-.5568-.973-.7386-.396-.1894-.869-.2841-1.421-.2841-.738 0-1.362.1591-1.869.4773-.507.3106-.761.7272-.761 1.25 0 .4166.164.7689.492 1.0568.328.2879.891.5189 1.69.6932l3.111.6363c1.671.3485 2.917.9091 3.739 1.6819.82.7727 1.231 1.7878 1.231 3.0454 0 1.1439-.333 2.1477-.997 3.0114-.657.8636-1.559 1.5379-2.708 2.0227-1.142.4773-2.458.7159-3.95.7159-2.276 0-4.09-.4811-5.44-1.4432-1.343-.9697-2.13-2.2879-2.361-3.9545l4.689-.25c.142.7045.485 1.2424 1.03 1.6136.544.3637 1.242.5455 2.092.5455.836 0 1.507-.1629 2.015-.4887.514-.3333.775-.7613.783-1.2841-.008-.4393-.19-.7992-.548-1.0795-.358-.2879-.91-.5076-1.657-.6591l-2.976-.6023c-1.679-.3409-2.929-.9318-3.749-1.7727-.814-.8409-1.221-1.9129-1.221-3.2159 0-1.1212.299-2.0871.896-2.89771.604-.8106 1.451-1.4356 2.541-1.875 1.097-.4394 2.38-.6591 3.849-.6591 2.172 0 3.88.4659 5.127 1.3977 1.252.9318 1.984 2.20081 2.193 3.80681Z" />
        <path fill="#0C91AC"
            d="M234.781 2.30833c-.245 1.67917-3.67 28.63197-3.67 29.01947 0 .0861.88.1722 1.958.1722 1.076 0 1.957-.0431 1.957-.1292 0-.3444 3.425-27.4264 3.67-29.06247L238.99.5h-1.958c-1.908 0-1.957.04305-2.251 1.80833Z" />
        <mask id="mask0_8_23" width="13" height="22" x="245" y="5" maskUnits="userSpaceOnUse"
            style="mask-type:luminance">
            <path fill="#fff" d="M245.99 5.50002h11.818V26.5H245.99V5.50002Z" />
        </mask>
        <g mask="url(#mask0_8_23)">
            <path fill="#0C91AC"
                d="m253.355 10.6869 4.453 5.1389-4.536 5.2829c-2.497 2.8817-4.745 5.331-4.911 5.3791-.208.096-.832-.3843-1.373-1.0566l-.998-1.2487 3.495-4.0343 3.537-4.0823-3.537-4.0823-3.495-4.03418.998-1.2487c.541-.6724 1.165-1.2007 1.415-1.2007s2.497 2.30529 4.952 5.18688Z" />
        </g>
    </g>
    <defs>
        <clipPath id="clip0_8_23">
            <path fill="#fff" d="M.192291.244324h259.615v31.5114H.192291z" />
        </clipPath>
    </defs>
</svg>