<svg xmlns="http://www.w3.org/2000/svg" width="41" height="31" fill="none"><path fill="#0C91AC" d="M4.45923 11.1869 0 16.3258l4.54258 5.2829c2.5005 2.8817 4.75089 5.331 4.91764 5.3791.20841.096.83358-.3843 1.37528-1.0566l1.0002-1.2487-3.50065-4.0343-3.54242-4.0823 3.54242-4.0823 3.50065-4.0342-1.0002-1.2487C10.2938 6.5283 9.66863 6 9.41856 6s-2.50051 2.3053-4.95933 5.1869ZM19.7019 1.80833c-.2454 1.67917-3.6755 28.63197-3.6755 29.01947 0 .0861.8813.1722 1.9609.1722 1.0776 0 1.9599-.0431 1.9599-.1292 0-.3444 3.4301-27.4264 3.6755-29.06247L23.9171 0h-1.9609c-1.9108 0-1.9599.0430501-2.2543 1.80833Z"/><mask id="mask0_468_3" width="13" height="21" x="28" y="6" maskUnits="userSpaceOnUse" style="mask-type:luminance"><path fill="#fff" d="M28.9275 6H40.763v21H28.9275V6Z"/></mask><g mask="url(#mask0_468_3)"><path fill="#0C91AC" d="m36.3765 21.8131 4.4592-5.1389-4.5425-5.2829c-2.5005-2.8817-4.7509-5.331-4.9177-5.3791-.2084-.096-.8335.3843-1.3752 1.0566L29 8.3175l3.5007 4.0343 3.5424 4.0823-3.5424 4.0823L29 24.5506l1.0003 1.2487C30.542 26.4717 31.1671 27 31.4172 27s2.5005-2.3053 4.9593-5.1869Z"/></g></svg>